<svg id="Layer_1" enable-background="new 0 0 512 512" height="512" viewBox="0 0 512 512" width="512" xmlns="http://www.w3.org/2000/svg"><g clip-rule="evenodd" fill-rule="evenodd"><path d="m256-.002c-141.16 0-255.998 114.843-255.998 256.002 0 141.16 114.838 255.998 255.998 255.998 141.159 0 256.002-114.838 256.002-255.998.001-141.159-114.842-256.002-256.002-256.002z" fill="#f44336"/><path d="m318.049 380.858c-98.248-13.779-176.278-95.965-184.571-194.496l47.473-47.464 29.628 60.903-17.967 17.958c-3.811 3.811-4.623 9.703-1.962 14.392 20.241 35.817 49.478 66.228 84.573 87.932 4.727 2.929 10.859 2.217 14.798-1.722l19.562-19.562 60.898 29.633zm78.073-66.648-83.733-40.732c-4.599-2.236-10.118-1.307-13.727 2.302l-18.751 18.75c-25.642-17.42-47.43-40.119-63.742-66.379l17.42-17.43c3.623-3.618 4.552-9.132 2.311-13.732l-40.742-83.738c-1.689-3.491-4.967-5.944-8.797-6.58-3.831-.641-7.732.599-10.472 3.349l-63.247 63.242c-2.42 2.43-3.703 5.769-3.505 9.189 3.213 55.119 26.633 108.211 65.941 149.5 39.232 41.209 91.073 67.299 145.962 73.469.453.061.892.08 1.34.08 3.16 0 6.222-1.25 8.481-3.51l68.497-68.502c2.741-2.75 3.991-6.651 3.349-10.467-.637-3.83-3.099-7.113-6.585-8.811z" fill="#fff"/></g></svg>